<?xml version="1.0" encoding="UTF-8"?>
<svg width="50px" height="50px" viewBox="0 0 50 50" version="1.1" xmlns="http://www.w3.org/2000/svg" xmlns:xlink="http://www.w3.org/1999/xlink">
    <!-- Generator: Sketch 3.8.3 (29802) - http://www.bohemiancoding.com/sketch -->
    <title>Logo</title>
    <desc>Created with Sketch.</desc>
    <defs></defs>
    <g id="Page-1" stroke="none" stroke-width="1" fill="none" fill-rule="evenodd">
        <g id="Artboard-16" transform="translate(-16.000000, -19.000000)">
            <text id="KALPAH" font-family="Montserrat-Bold, Montserrat" font-size="11" font-weight="bold" letter-spacing="1.5" fill="#FFFFFF">
                <tspan x="15" y="66">KALPA</tspan>
                <tspan x="59.944" y="66">H</tspan>
            </text>
            <g id="Logo" transform="translate(16.000000, 19.000000)">
                <path d="M26.0640722,26.119543 C25.8248268,25.8868522 25.8248268,25.7123341 26.0185016,25.5029124 C27.100802,24.2696511 28.0008203,22.8502372 28.6615931,21.3144779 C28.7641269,21.0468834 29.071728,21.0003453 29.2767955,21.2446706 C30.8717645,22.931679 33.0933285,23.9787876 35.5541378,23.9787876 C40.4074007,23.9787876 44.33786,19.918333 44.33786,14.9038462 C44.33786,9.88935927 40.4074007,5.8289047 35.5541378,5.8289047 C33.3553591,5.8289047 30.5413781,6.92255149 29.0831207,8.7724434 C26.7476303,11.9486729 24.4007474,15.1132679 22.065257,18.2894974 C21.8601896,18.5570918 21.6095516,18.5687264 21.5070179,18.2196901 C21.2677725,17.1493124 21.1538462,16.0440311 21.1538462,14.9038462 C21.1538462,6.67822615 27.6134707,0 35.5769231,0 C43.5403755,0 50,6.66659161 50,14.9038462 C50,23.1294662 43.5403755,29.8076923 35.5769231,29.8076923 C31.919887,29.8076923 28.5932373,28.4115475 26.0640722,26.119543 Z" id="Shape" fill="#535151"></path>
                <path d="M23.9359278,3.68814928 C24.1751732,3.92084009 24.1751732,4.09535819 23.9814984,4.30477992 C22.899198,5.53804119 21.9991797,6.95745511 21.3384069,8.49321444 C21.2358731,8.76080886 20.928272,8.80734702 20.7232045,8.56302168 C19.1282355,6.87601333 16.9066715,5.8289047 14.4458622,5.8289047 C9.59259934,5.8289047 5.66213999,9.88935927 5.66213999,14.9038462 C5.66213999,19.918333 9.59259934,23.9787876 14.4458622,23.9787876 C16.6446409,23.9787876 19.4586219,22.8851408 20.9168793,21.0352489 C23.2523697,17.8590194 25.5992526,14.6944244 27.934743,11.5181949 C28.1398104,11.2506005 28.3904484,11.238966 28.4929821,11.5880022 C28.7322275,12.6583799 28.8461538,13.7636612 28.8461538,14.9038462 C28.8461538,23.1294662 22.3865293,29.8076923 14.4230769,29.8076923 C6.4596245,29.8076923 0,23.1411007 0,14.9038462 C0,6.67822615 6.4596245,0 14.4230769,0 C18.080113,0 21.4067627,1.39614484 23.9359278,3.68814928 Z" id="Shape" fill="#FF8080"></path>
            </g>
        </g>
    </g>
</svg>